<svg xmlns="http://www.w3.org/2000/svg" xmlns:xlink="http://www.w3.org/1999/xlink" version="1.1" x="0px" y="0px"
     viewBox="0 0 100 100" enable-background="new 0 0 100 100" xml:space="preserve">
    <path fill="#007b8d" d="M95.1,34L40.3,2.3c-0.8-0.4-2-0.4-2.7,0L5,21.3c-0.7,0.4-0.7,1.1,0,1.6l54.7,31.6c0.8,0.4,2,0.4,2.7,0l32.6-19  C95.8,35.1,95.8,34.4,95.1,34z M66.5,47.2c-0.3-0.3-0.7-0.6-1.1-0.8c-2.8-1.6-7.3-1.6-10.1,0c-0.2,0.1-0.4,0.3-0.6,0.4L17.9,25.5  c0.4-0.1,0.7-0.3,1-0.5c2.8-1.6,2.8-4.2,0-5.8c-0.3-0.2-0.6-0.3-1-0.5l15.2-8.8c0.2,0.2,0.5,0.4,0.8,0.6c2.8,1.6,7.3,1.6,10.1,0  c0.3-0.2,0.6-0.4,0.8-0.6l37,21.4c-0.5,0.2-1,0.4-1.4,0.6c-2.8,1.6-2.8,4.2,0,5.8c0.4,0.3,0.9,0.5,1.4,0.6L66.5,47.2z M71,39.1  l-2.4,1.4c-0.4,0.2-1,0.2-1.3,0L63,38.1c-0.4-0.2-0.4-0.6,0-0.8l2.4-1.4c0.4-0.2,1-0.2,1.3,0l4.2,2.4C71.4,38.6,71.4,38.9,71,39.1z   M37,19.5l-2.4,1.4c-0.4,0.2-1,0.2-1.3,0L29,18.5c-0.4-0.2-0.4-0.6,0-0.8l2.4-1.4c0.4-0.2,1-0.2,1.3,0l4.2,2.4  C37.4,19,37.4,19.3,37,19.5z M91.4,43.7l4.3,2.5L61.4,66l-1.1-0.6l-3.1-1.8L4.4,33l4.2-2.5l52.8,30.5L91.4,43.7z M57.2,74.2  L4.4,43.7l4.2-2.5l52.9,30.6l29.9-17.4l4.3,2.5L61.5,76.7l-1.1-0.6L57.2,74.2z M91.4,65l4.3,2.5L61.4,87.3l-1.1-0.6l-3.1-1.8  L4.4,54.3l4.2-2.5l52.8,30.5L91.4,65z M57.2,95.5L4.4,65l4.2-2.5l52.9,30.6l29.9-17.4l4.3,2.5L61.5,98l-1.1-0.6L57.2,95.5z   M60.9,22.1c-6-3.5-15.8-3.5-21.8,0c-6,3.5-6,9.1,0.1,12.6c6,3.5,15.8,3.5,21.8,0C66.9,31.3,66.9,25.6,60.9,22.1z M53.1,27.6  l2.9,1.7c-0.6,0.5-1.3,1-2.1,1.5c-0.8,0.5-1.7,0.9-2.5,1.2l-2.9-1.7L53.1,27.6z M46.9,29.3L44,27.6c0.6-0.5,1.2-1,2.1-1.5  c0.8-0.5,1.7-0.9,2.5-1.2l2.9,1.7L46.9,29.3z M54.8,26.6l3.8-2.2c0,0.9-0.3,2.2-1.4,3.6L54.8,26.6z M53.1,25.7l-2.4-1.4  c2.4-0.7,4.7-0.8,6.3-0.8L53.1,25.7z M54.2,22.2c-1.6,0.2-3.4,0.5-5.3,1L46.8,22C49.2,21.6,51.9,21.7,54.2,22.2z M41.9,23.7  c0.8-0.5,1.7-0.8,2.6-1.1L47,24c-0.8,0.4-1.7,0.8-2.5,1.2c-0.8,0.5-1.5,1-2.1,1.4l-2.5-1.4C40.4,24.7,41.1,24.2,41.9,23.7z   M39.4,30.9c-0.9-1.4-1.1-2.9-0.4-4.3l2.2,1.2C40.1,28.9,39.6,30,39.4,30.9z M42.9,28.8l2.4,1.4l-3.8,2.2  C41.5,31.5,41.7,30.2,42.9,28.8z M46.9,31.2l2.4,1.4c-2.4,0.7-4.7,0.8-6.3,0.8L46.9,31.2z M45.8,34.6c1.6-0.2,3.4-0.5,5.3-1l2.2,1.2  C50.8,35.2,48.2,35.1,45.8,34.6z M58.2,33.1c-0.8,0.5-1.7,0.8-2.6,1.1l-2.4-1.4c0.8-0.3,1.7-0.7,2.5-1.2c0.8-0.5,1.5-1,2.1-1.4  l2.4,1.4C59.6,32.1,59,32.7,58.2,33.1z M61.1,30.3L58.9,29c1-1.1,1.5-2.1,1.8-3C61.6,27.3,61.7,28.9,61.1,30.3z"/>
</svg>