<svg xmlns="http://www.w3.org/2000/svg" xmlns:xlink="http://www.w3.org/1999/xlink" version="1.1" x="0px" y="0px"
     viewBox="0 0 24 24" enable-background="new 0 0 24 24" xml:space="preserve">
    <path fill="#007b8d" fill-rule="evenodd" clip-rule="evenodd" d="M4.795,7.128V5.861c0-1.473,0.484-2.617,1.458-3.434  C7.221,1.611,8.586,1.2,10.342,1.2h3.346c1.722,0,3.071,0.401,4.05,1.198c0.979,0.797,1.468,1.888,1.468,3.262v2.084  c0,0.411-0.063,0.836-0.187,1.282c-0.122,0.44-0.298,0.846-0.518,1.208c-0.416,0.705-1.429,1.492-3.038,2.357  c-0.303,0.167-0.533,0.288-0.685,0.377c-0.362,0.195-0.631,0.421-0.803,0.665c-0.171,0.24-0.259,0.523-0.259,0.852v0.685H8.698  v-1.702c0-0.851,0.142-1.536,0.431-2.055c0.284-0.519,0.778-0.968,1.472-1.35L13.1,8.718c0.372-0.201,0.637-0.391,0.793-0.568  c0.157-0.176,0.235-0.367,0.235-0.577v-1.32c0-0.42-0.113-0.734-0.343-0.935c-0.23-0.2-0.582-0.303-1.057-0.303h-1.267  c-0.543,0-0.958,0.113-1.247,0.337C9.926,5.578,9.784,5.905,9.784,6.336v0.792H4.795L4.795,7.128z M8.698,22.8v-5.106h5.019V22.8  H8.698z"/>
    </svg>