<svg xmlns="http://www.w3.org/2000/svg" xmlns:xlink="http://www.w3.org/1999/xlink" version="1.1" x="0px" y="0px"
     viewBox="0 0 96 96" enable-background="new 0 0 96 96" xml:space="preserve">
    <g>
        <path fill="#007b8d"  d="M21.785,40.458l5.193-10.374c0.946-1.157,1.517-2.633,1.517-4.241c0-3.7-3.011-6.709-6.71-6.709s-6.709,3.01-6.709,6.709   c0,1.607,0.569,3.083,1.516,4.24L21.785,40.458z M21.785,21.22c2.55,0,4.624,2.074,4.624,4.624c0,2.549-2.074,4.624-4.624,4.624   c-2.549,0-4.624-2.074-4.624-4.624C17.161,23.294,19.236,21.22,21.785,21.22z"/>
        <circle fill="#007b8d"
                cx="21.785" cy="25.844" r="2.161"/>
        <path fill="#007b8d"  d="M57.701,61.298c0-2.573-2.094-4.666-4.666-4.666s-4.666,2.093-4.666,4.666c0,1.117,0.396,2.145,1.053,2.948l3.612,7.216   l3.611-7.215C57.305,63.442,57.701,62.415,57.701,61.298z M53.035,64.514c-1.772,0-3.216-1.443-3.216-3.216   c0-1.773,1.443-3.216,3.216-3.216c1.773,0,3.216,1.442,3.216,3.216C56.251,63.07,54.809,64.514,53.035,64.514z"/>
        <circle
                fill="#007b8d"  cx="53.035" cy="61.297" r="1.502"/>
        <path fill="#007b8d"  d="M72.259,42.21l4.045-8.081c0.737-0.901,1.182-2.051,1.182-3.304c0-2.882-2.346-5.226-5.227-5.226   c-2.882,0-5.226,2.344-5.226,5.226c0,1.252,0.443,2.402,1.18,3.303L72.259,42.21z M72.259,27.225c1.986,0,3.602,1.616,3.602,3.602   s-1.615,3.602-3.602,3.602c-1.985,0-3.602-1.616-3.602-3.602S70.273,27.225,72.259,27.225z"/>
        <circle fill="#007b8d"
                cx="72.259" cy="30.826" r="1.683"/>
        <path fill="#007b8d"  d="M65.35,18.249l2.847-5.687c0.519-0.634,0.831-1.442,0.831-2.324c0-2.028-1.65-3.678-3.678-3.678s-3.678,1.649-3.678,3.678   c0,0.88,0.313,1.69,0.831,2.324L65.35,18.249z M65.35,7.704c1.397,0,2.534,1.137,2.534,2.534c0,1.398-1.137,2.535-2.534,2.535   s-2.534-1.137-2.534-2.535C62.815,8.841,63.952,7.704,65.35,7.704z"/>
        <circle fill="#007b8d"
                cx="65.35" cy="10.238" r="1.184"/>
        <path fill="#007b8d"  d="M87.943,47.376c-0.008-0.171-0.018-0.341-0.028-0.511c-0.042-0.664-0.095-1.327-0.168-1.984   c-0.002-0.018-0.003-0.036-0.005-0.054c-0.075-0.663-0.174-1.321-0.281-1.977c-0.031-0.187-0.064-0.373-0.098-0.56   c-0.1-0.554-0.209-1.105-0.331-1.653c-0.034-0.15-0.066-0.3-0.102-0.45c-0.131-0.552-0.274-1.1-0.429-1.645   c-0.075-0.268-0.155-0.534-0.236-0.8c-0.104-0.345-0.217-0.688-0.332-1.03c-0.184-0.551-0.381-1.094-0.589-1.635   c-0.08-0.208-0.157-0.416-0.241-0.623c-0.161-0.399-0.331-0.795-0.505-1.189c-0.046-0.105-0.095-0.21-0.142-0.314   c-1.021-2.255-2.246-4.412-3.678-6.445l0.027-0.005l-0.924-1.215c-0.006-0.007-0.011-0.014-0.016-0.022l-0.371-0.487l-0.008,0.001   c-0.843-1.069-1.745-2.095-2.702-3.082c-0.167-0.175-0.333-0.352-0.503-0.524c-0.19-0.189-0.389-0.373-0.582-0.559   c-0.975-0.942-1.986-1.832-3.04-2.663l0.001-0.008l-0.473-0.357c-0.006-0.003-0.011-0.008-0.016-0.012l-1.237-0.94l-0.005,0.027   c-0.873-0.615-1.774-1.185-2.692-1.724l-0.877,1.753c0.062,0.038,0.125,0.074,0.188,0.111c0.217,0.13,0.434,0.262,0.65,0.397   c0.216,0.137,0.43,0.276,0.643,0.417c0.216,0.142,0.43,0.284,0.643,0.43c0.209,0.142,0.416,0.29,0.623,0.438   c0.124,0.089,0.246,0.18,0.368,0.267c-0.056,0.242-0.117,0.482-0.18,0.721c-0.082,0.309-0.161,0.618-0.255,0.921   c-0.104,0.332-0.223,0.655-0.339,0.979c-0.107,0.298-0.212,0.598-0.331,0.891c-0.13,0.316-0.273,0.622-0.416,0.931   c-0.133,0.287-0.262,0.575-0.405,0.855c-0.153,0.299-0.322,0.589-0.488,0.88c-0.156,0.273-0.309,0.549-0.475,0.817   c-0.092,0.146-0.192,0.286-0.289,0.429c0.878-1.083,2.086-1.881,3.469-2.254c0.089-0.198,0.18-0.395,0.266-0.595   c0.131-0.306,0.261-0.61,0.379-0.922c0.132-0.351,0.251-0.71,0.367-1.069c0.105-0.316,0.211-0.632,0.302-0.955   c0.03-0.105,0.07-0.207,0.099-0.312c0.79,0.649,1.543,1.329,2.271,2.03c0.155,0.152,0.313,0.3,0.468,0.455   c0.125,0.125,0.246,0.253,0.369,0.379l1.774,2.429c-0.033,0.009-0.064,0.021-0.097,0.031c0.534,0.477,0.993,1.037,1.354,1.661   c0.124-0.031,0.247-0.064,0.373-0.094c3.09,4.207,5.237,8.91,6.384,13.897c0.006,0.024,0.012,0.047,0.017,0.07   c0.161,0.707,0.303,1.419,0.419,2.135c-0.221-0.274-0.457-0.544-0.706-0.811c-0.058-0.063-0.122-0.124-0.182-0.186   c-0.195-0.203-0.395-0.405-0.605-0.605c-0.088-0.084-0.182-0.165-0.272-0.248c-0.194-0.176-0.391-0.352-0.598-0.525   c-0.103-0.086-0.21-0.17-0.315-0.255c-0.208-0.168-0.42-0.335-0.64-0.499c-0.108-0.082-0.222-0.163-0.334-0.244   c-0.229-0.166-0.466-0.331-0.709-0.494c-0.107-0.073-0.218-0.146-0.329-0.218c-0.264-0.172-0.534-0.341-0.812-0.508   c-0.098-0.059-0.195-0.118-0.294-0.176c-0.313-0.185-0.635-0.365-0.964-0.544c-0.07-0.038-0.14-0.077-0.21-0.115   c-0.6-0.32-1.23-0.627-1.877-0.926l-0.909,1.816c0.418,0.191,0.827,0.387,1.224,0.586c0.171,0.086,0.331,0.176,0.498,0.264   c0.354,0.185,0.705,0.371,1.039,0.562c0.213,0.122,0.413,0.248,0.618,0.373c0.268,0.163,0.537,0.325,0.791,0.492   c0.222,0.146,0.431,0.295,0.642,0.443c0.217,0.152,0.431,0.303,0.635,0.457c0.216,0.165,0.421,0.332,0.625,0.499   c0.174,0.143,0.346,0.287,0.511,0.433c0.203,0.181,0.396,0.363,0.585,0.547c0.14,0.137,0.276,0.274,0.407,0.413   c0.185,0.196,0.362,0.394,0.529,0.593c0.109,0.13,0.211,0.26,0.313,0.391c0.163,0.212,0.32,0.424,0.462,0.639   c0.079,0.121,0.151,0.243,0.224,0.365c0.138,0.229,0.271,0.457,0.384,0.688c0.053,0.109,0.095,0.218,0.143,0.327   c0.107,0.247,0.212,0.495,0.293,0.745c0.028,0.087,0.045,0.176,0.069,0.263c0.077,0.275,0.149,0.549,0.191,0.827   c0,0.003,0,0.007,0.002,0.007H66.1c-0.001-0.082-0.006-0.161-0.007-0.243c-0.036-2.701-0.19-5.321-0.448-7.848   c-0.053-0.517-0.1-1.038-0.161-1.547c-0.057-0.466-0.125-0.919-0.188-1.378c-0.063-0.45-0.116-0.91-0.186-1.353   c0.075-0.104,0.151-0.205,0.227-0.309c0.133-0.18,0.265-0.361,0.403-0.538c0.363,0.084,0.729,0.168,1.086,0.257   c0.188,0.047,0.379,0.093,0.564,0.141c0.165,0.042,0.322,0.089,0.484,0.133l-0.56-1.119c-0.626-0.765-1.065-1.678-1.306-2.667   c-0.122,0.124-0.246,0.246-0.365,0.374c-0.202,0.216-0.399,0.436-0.595,0.659c-0.167-0.036-0.337-0.069-0.506-0.102   c-0.035-0.169-0.067-0.339-0.103-0.506c0.226-0.196,0.446-0.395,0.664-0.599c0.236-0.222,0.465-0.45,0.693-0.68   c0.02-0.02,0.039-0.042,0.059-0.062c-0.021-0.219-0.058-0.433-0.058-0.657c0-1.235,0.341-2.389,0.925-3.384   c-0.077,0.112-0.152,0.227-0.233,0.335c-0.199,0.264-0.413,0.517-0.623,0.774c-0.199,0.243-0.393,0.489-0.601,0.722   c-0.22,0.247-0.455,0.482-0.685,0.719c-0.209,0.216-0.414,0.437-0.631,0.644c-1.058-4.335-2.468-8.159-4.149-11.309   c-0.038-0.071-0.077-0.14-0.115-0.21c-0.179-0.328-0.358-0.651-0.544-0.964c-0.058-0.099-0.117-0.196-0.176-0.293   c-0.167-0.277-0.337-0.548-0.509-0.813c-0.072-0.11-0.145-0.22-0.217-0.328c-0.163-0.243-0.329-0.481-0.496-0.712   c-0.08-0.112-0.16-0.223-0.241-0.331c-0.166-0.222-0.335-0.436-0.504-0.646c-0.083-0.103-0.166-0.208-0.25-0.308   c-0.177-0.212-0.357-0.413-0.538-0.612c-0.077-0.085-0.154-0.174-0.232-0.257c-0.211-0.223-0.425-0.434-0.64-0.64   c-0.05-0.048-0.099-0.1-0.15-0.147c-0.268-0.25-0.54-0.488-0.814-0.71c0.13,0.023,0.261,0.047,0.392,0.07   c0.327,0.059,0.654,0.12,0.979,0.186c0.187,0.041,0.373,0.082,0.56,0.124c0.132,0.029,0.262,0.059,0.394,0.088   c0.186,0.044,0.37,0.086,0.556,0.132c0.18,0.046,0.359,0.094,0.538,0.141c0.208,0.056,0.417,0.111,0.625,0.169   c0.072,0.021,0.145,0.041,0.217,0.062c0.208,0.061,0.414,0.126,0.62,0.189c0.245,0.076,0.489,0.149,0.731,0.23   c0.237,0.078,0.474,0.164,0.709,0.247c0.238,0.085,0.479,0.168,0.717,0.258c0.203,0.077,0.405,0.158,0.607,0.24l-0.717-1.431   c-0.285-0.35-0.511-0.746-0.7-1.162c-0.297-0.099-0.593-0.197-0.892-0.288c-0.276-0.083-0.552-0.166-0.829-0.244   c-0.53-0.149-1.062-0.289-1.597-0.416c-0.169-0.039-0.34-0.076-0.509-0.114c-0.537-0.12-1.078-0.228-1.623-0.326   c-0.191-0.035-0.384-0.069-0.576-0.1c-0.653-0.108-1.308-0.205-1.968-0.28c-0.021-0.002-0.045-0.004-0.066-0.006   c-0.654-0.073-1.313-0.125-1.974-0.167c-0.171-0.011-0.342-0.021-0.513-0.029C49.375,9.462,48.688,9.439,48,9.439   c-0.689,0-1.376,0.023-2.061,0.058c-0.17,0.008-0.34,0.018-0.51,0.029c-0.666,0.042-1.33,0.095-1.988,0.169   c-0.018,0.002-0.034,0.003-0.051,0.005c-0.664,0.075-1.324,0.174-1.98,0.282c-0.186,0.031-0.37,0.063-0.555,0.096   c-0.56,0.1-1.115,0.211-1.668,0.335c-0.141,0.031-0.28,0.061-0.42,0.094c-0.561,0.132-1.115,0.278-1.666,0.434   c-0.267,0.074-0.529,0.153-0.793,0.233c-0.35,0.107-0.697,0.22-1.043,0.336c-0.539,0.181-1.074,0.374-1.605,0.578   c-0.215,0.083-0.432,0.163-0.646,0.25c-0.397,0.16-0.789,0.329-1.182,0.502c-0.109,0.048-0.218,0.098-0.327,0.148   c-2.252,1.019-4.407,2.244-6.437,3.673l-0.006-0.027l-1.237,0.94l-0.03,0.023c0.762,0.187,1.483,0.473,2.149,0.85   c0.188-0.135,0.375-0.269,0.565-0.399c0.215-0.15,0.434-0.293,0.652-0.437c0.211-0.14,0.422-0.277,0.634-0.411   c0.218-0.136,0.437-0.268,0.655-0.4c0.218-0.132,0.438-0.264,0.656-0.39c0.22-0.126,0.44-0.247,0.662-0.369   c0.225-0.123,0.446-0.246,0.674-0.364c0.223-0.116,0.447-0.228,0.67-0.339c0.229-0.114,0.459-0.229,0.688-0.338   c0.226-0.107,0.451-0.206,0.679-0.308c0.234-0.107,0.47-0.212,0.705-0.313c0.229-0.096,0.459-0.187,0.688-0.279   c0.237-0.095,0.476-0.191,0.714-0.282c0.232-0.088,0.469-0.17,0.704-0.254c0.24-0.084,0.479-0.171,0.722-0.251   c0.239-0.08,0.479-0.152,0.719-0.226c0.205-0.064,0.41-0.128,0.617-0.189c0.084-0.025,0.17-0.049,0.256-0.073   c0.195-0.055,0.393-0.107,0.59-0.159c0.187-0.05,0.375-0.1,0.563-0.148c0.17-0.042,0.342-0.081,0.512-0.121   c0.137-0.03,0.272-0.062,0.41-0.092c0.194-0.044,0.389-0.087,0.584-0.129c0.27-0.055,0.541-0.105,0.813-0.154   c0.035-0.006,0.07-0.014,0.107-0.02c0.146-0.026,0.293-0.053,0.441-0.081c-0.271,0.219-0.539,0.453-0.805,0.699   c-0.084,0.078-0.164,0.163-0.247,0.244c-0.183,0.176-0.363,0.353-0.541,0.541c-0.099,0.102-0.193,0.213-0.289,0.319   c-0.162,0.179-0.324,0.36-0.483,0.549c-0.096,0.116-0.189,0.235-0.285,0.354c-0.158,0.196-0.314,0.394-0.469,0.6   c-0.09,0.12-0.18,0.243-0.27,0.367c-0.157,0.22-0.314,0.444-0.469,0.674c-0.08,0.119-0.16,0.239-0.238,0.362   c-0.164,0.252-0.325,0.51-0.485,0.774c-0.065,0.11-0.132,0.219-0.196,0.33c-0.178,0.3-0.351,0.609-0.521,0.923   c-0.045,0.083-0.092,0.165-0.137,0.249c-0.207,0.385-0.407,0.78-0.604,1.185c-0.008,0.018-0.018,0.035-0.025,0.053   c-1.404,2.895-2.594,6.284-3.514,10.061c-0.217-0.206-0.422-0.427-0.63-0.642c-0.231-0.24-0.466-0.474-0.688-0.722   c-0.207-0.235-0.401-0.481-0.6-0.723c-0.051-0.063-0.101-0.127-0.152-0.189c-0.188,0.724-0.467,1.412-0.828,2.047   c0.098,0.112,0.192,0.228,0.293,0.338c0.248,0.274,0.502,0.538,0.763,0.8c0.226,0.228,0.454,0.454,0.688,0.673   c0.219,0.206,0.439,0.406,0.666,0.602c-0.035,0.167-0.07,0.337-0.103,0.506c-0.169,0.035-0.339,0.067-0.506,0.102   c-0.196-0.225-0.396-0.446-0.599-0.664c-0.223-0.236-0.451-0.465-0.681-0.693c-0.259-0.258-0.521-0.509-0.792-0.755   c-0.066-0.06-0.136-0.117-0.203-0.177c-0.109,0.154-0.22,0.306-0.339,0.452l-0.644,1.286c0.143,0.136,0.287,0.271,0.429,0.408   c0.216,0.209,0.437,0.414,0.644,0.631c-0.63,0.154-1.232,0.326-1.84,0.494l-1.245,2.486c0.271-0.086,0.536-0.176,0.813-0.258   c0.146-0.043,0.297-0.084,0.443-0.126c0.551-0.16,1.107-0.315,1.677-0.462c0.179-0.047,0.362-0.09,0.543-0.135   c0.362-0.09,0.733-0.175,1.102-0.261c0.138,0.175,0.267,0.353,0.399,0.531c0.076,0.105,0.154,0.209,0.229,0.314   c-0.074,0.475-0.131,0.967-0.197,1.45c-0.058,0.418-0.119,0.831-0.17,1.255c-0.066,0.548-0.117,1.109-0.174,1.668   c-0.252,2.497-0.402,5.086-0.438,7.753c-0.001,0.082-0.006,0.162-0.008,0.245H10.063c0-0.006,0-0.011,0.002-0.017   c0.041-0.266,0.111-0.529,0.184-0.792c0.027-0.099,0.047-0.199,0.078-0.297c0.078-0.243,0.181-0.483,0.285-0.723   c0.05-0.117,0.095-0.233,0.152-0.348c0.11-0.226,0.24-0.45,0.375-0.674c0.075-0.126,0.148-0.251,0.231-0.376   c0.142-0.212,0.296-0.422,0.457-0.631c0.101-0.132,0.206-0.265,0.315-0.397c0.166-0.197,0.342-0.394,0.526-0.588   c0.132-0.14,0.269-0.278,0.409-0.416c0.188-0.183,0.381-0.365,0.584-0.545c0.164-0.146,0.336-0.289,0.511-0.433   c0.204-0.168,0.409-0.335,0.627-0.5c0.202-0.154,0.416-0.304,0.63-0.455c0.213-0.149,0.424-0.299,0.646-0.445   c0.253-0.166,0.52-0.327,0.787-0.489c0.205-0.125,0.406-0.252,0.621-0.375c0.332-0.19,0.682-0.375,1.033-0.559   c0.168-0.089,0.33-0.181,0.504-0.268c0.051-0.025,0.104-0.049,0.155-0.075l-0.909-1.815c-0.265,0.133-0.532,0.265-0.789,0.402   c-0.095,0.05-0.185,0.101-0.278,0.152c-0.306,0.166-0.604,0.334-0.896,0.505c-0.119,0.069-0.232,0.139-0.349,0.209   c-0.257,0.156-0.511,0.313-0.756,0.473c-0.128,0.083-0.253,0.166-0.378,0.25c-0.225,0.15-0.443,0.303-0.658,0.458   c-0.127,0.092-0.255,0.184-0.379,0.277c-0.202,0.151-0.398,0.305-0.59,0.46c-0.121,0.097-0.244,0.194-0.361,0.292   c-0.189,0.158-0.367,0.319-0.546,0.48c-0.106,0.097-0.218,0.193-0.321,0.291c-0.188,0.178-0.363,0.359-0.539,0.54   c-0.08,0.083-0.166,0.166-0.246,0.25c-0.244,0.265-0.478,0.532-0.697,0.803c0.024-0.143,0.053-0.285,0.076-0.429   c0.008-0.042,0.016-0.084,0.023-0.126c0.047-0.263,0.096-0.526,0.148-0.787c0.043-0.196,0.086-0.393,0.131-0.589   c0.035-0.153,0.068-0.304,0.103-0.456c0.036-0.156,0.072-0.313,0.111-0.469c0.047-0.188,0.097-0.375,0.147-0.562   c0.059-0.22,0.115-0.44,0.178-0.658c0.016-0.055,0.029-0.109,0.046-0.163c0.063-0.215,0.131-0.428,0.196-0.642   c0.076-0.245,0.148-0.489,0.229-0.732c0.078-0.237,0.164-0.473,0.247-0.709c0.085-0.238,0.168-0.479,0.258-0.716   c0.089-0.236,0.184-0.47,0.278-0.704c0.093-0.232,0.185-0.466,0.282-0.697c0.1-0.233,0.205-0.465,0.31-0.697   c0.103-0.229,0.205-0.458,0.312-0.686c0.108-0.229,0.223-0.456,0.336-0.684c0.111-0.226,0.224-0.451,0.34-0.676   c0.119-0.226,0.242-0.448,0.363-0.671c0.096-0.173,0.19-0.343,0.287-0.513c-0.441-0.621-0.804-1.302-1.066-2.031   c-0.853,1.398-1.624,2.841-2.297,4.332c-0.035,0.081-0.072,0.161-0.108,0.242c-0.181,0.41-0.358,0.822-0.526,1.238   c-0.063,0.157-0.121,0.316-0.183,0.474c-0.231,0.598-0.451,1.201-0.653,1.81c-0.107,0.319-0.212,0.639-0.311,0.962   c-0.085,0.278-0.168,0.557-0.246,0.837C9.35,39.084,9.21,39.61,9.084,40.141c-0.041,0.175-0.08,0.352-0.119,0.529   c-0.119,0.534-0.227,1.072-0.324,1.613c-0.035,0.193-0.068,0.387-0.1,0.581c-0.107,0.651-0.205,1.305-0.279,1.964   c-0.004,0.023-0.005,0.047-0.008,0.07c-0.072,0.653-0.125,1.31-0.167,1.97c-0.01,0.171-0.021,0.343-0.028,0.514   C8.023,48.064,8,48.75,8,49.439s0.023,1.376,0.057,2.059c0.008,0.17,0.018,0.34,0.028,0.51c0.042,0.666,0.095,1.328,0.169,1.984   c0.002,0.02,0.003,0.037,0.005,0.055c0.075,0.666,0.173,1.324,0.281,1.979c0.03,0.187,0.063,0.372,0.097,0.558   c0.1,0.558,0.211,1.112,0.334,1.664c0.031,0.142,0.062,0.282,0.094,0.422c0.133,0.561,0.279,1.114,0.436,1.666   c0.074,0.267,0.152,0.529,0.232,0.793c0.107,0.351,0.221,0.697,0.336,1.045c0.18,0.537,0.373,1.07,0.576,1.597   c0.084,0.219,0.164,0.438,0.252,0.657c0.16,0.396,0.328,0.785,0.5,1.177c0.049,0.11,0.102,0.224,0.152,0.335   c1.02,2.249,2.243,4.404,3.672,6.432l-0.027,0.006l0.94,1.237l0.369,0.487l0.009-0.002c0.838,1.064,1.739,2.089,2.692,3.072   c0.172,0.18,0.342,0.361,0.517,0.537c0.184,0.185,0.377,0.362,0.565,0.543c0.978,0.946,1.993,1.84,3.052,2.676l-0.001,0.007   l0.487,0.371l1.238,0.938l0.004-0.025c2.041,1.436,4.207,2.666,6.473,3.688c0.09,0.04,0.18,0.082,0.27,0.122   c0.405,0.18,0.812,0.354,1.221,0.52c0.173,0.068,0.347,0.133,0.52,0.199c0.582,0.227,1.169,0.439,1.764,0.637   c0.324,0.107,0.648,0.214,0.976,0.313c0.276,0.084,0.553,0.167,0.831,0.245c0.523,0.146,1.052,0.286,1.582,0.412   c0.174,0.041,0.351,0.08,0.527,0.119c0.535,0.119,1.073,0.226,1.614,0.324c0.193,0.035,0.386,0.068,0.579,0.1   c0.653,0.107,1.307,0.205,1.967,0.28c0.021,0.003,0.047,0.004,0.068,0.007c0.654,0.072,1.311,0.125,1.97,0.167   c0.173,0.01,0.343,0.021,0.515,0.028c0.684,0.035,1.369,0.059,2.059,0.059s1.375-0.023,2.063-0.055   c0.171-0.008,0.341-0.019,0.512-0.029c0.663-0.042,1.324-0.096,1.981-0.168c0.02-0.003,0.038-0.004,0.057-0.006   c0.663-0.075,1.321-0.174,1.977-0.281c0.188-0.031,0.375-0.064,0.562-0.097c0.555-0.101,1.106-0.209,1.654-0.332   c0.147-0.034,0.294-0.065,0.44-0.099c0.555-0.132,1.105-0.277,1.652-0.432c0.269-0.075,0.534-0.154,0.801-0.234   c0.345-0.105,0.688-0.218,1.028-0.332c0.55-0.185,1.094-0.381,1.634-0.588c0.209-0.082,0.418-0.158,0.626-0.242   c0.398-0.162,0.793-0.33,1.187-0.504c0.106-0.049,0.214-0.098,0.321-0.146c2.252-1.021,4.408-2.246,6.439-3.676l0.005,0.027   l1.215-0.925c0.008-0.006,0.015-0.011,0.022-0.016l0.487-0.371l-0.001-0.007c1.064-0.84,2.088-1.74,3.071-2.693   c0.181-0.172,0.362-0.341,0.537-0.516c0.186-0.187,0.364-0.379,0.546-0.568c0.945-0.977,1.84-1.993,2.672-3.05l0.008,0.001   l0.371-0.487l0.938-1.237l-0.027-0.006c1.436-2.037,2.663-4.201,3.686-6.461c0.043-0.097,0.087-0.191,0.13-0.287   c0.178-0.399,0.35-0.804,0.514-1.209c0.074-0.184,0.143-0.367,0.213-0.551c0.221-0.57,0.429-1.145,0.622-1.726   c0.11-0.329,0.219-0.658,0.319-0.99c0.083-0.272,0.165-0.548,0.242-0.823c0.149-0.531,0.29-1.063,0.417-1.6   c0.04-0.168,0.076-0.337,0.114-0.506c0.119-0.538,0.228-1.08,0.325-1.625c0.034-0.191,0.068-0.383,0.1-0.575   c0.106-0.653,0.205-1.308,0.28-1.968c0.002-0.021,0.004-0.045,0.006-0.066c0.072-0.654,0.125-1.313,0.167-1.973   c0.011-0.172,0.021-0.342,0.028-0.514C87.977,50.814,88,50.129,88,49.439S87.977,48.064,87.943,47.376z M63.473,38.737   c0.114,0.876,0.218,1.761,0.304,2.659c0.035,0.376,0.065,0.756,0.096,1.135c0.056,0.674,0.1,1.355,0.139,2.04   c0.034,0.616,0.066,1.233,0.087,1.856c0.024,0.666,0.038,1.338,0.046,2.012v0.001H60.85c0.016-0.338,0.017-0.679,0.045-1.014   c0.022-0.233,0.063-0.458,0.09-0.687c0.052-0.431,0.098-0.863,0.171-1.286c0.049-0.268,0.117-0.527,0.175-0.793   c0.08-0.378,0.152-0.759,0.253-1.131c0.072-0.278,0.17-0.548,0.254-0.821c0.105-0.35,0.205-0.701,0.329-1.043   c0.101-0.279,0.222-0.549,0.332-0.823c0.131-0.327,0.256-0.656,0.4-0.975c0.127-0.275,0.271-0.538,0.407-0.807   C63.36,38.953,63.416,38.844,63.473,38.737z M64.145,50.439c-0.008,0.675-0.022,1.348-0.046,2.014   c-0.021,0.623-0.053,1.239-0.087,1.854c-0.04,0.688-0.084,1.369-0.14,2.045c-0.031,0.377-0.06,0.755-0.096,1.129   c-0.086,0.898-0.189,1.785-0.304,2.662c-0.057-0.107-0.112-0.215-0.167-0.323c-0.135-0.269-0.28-0.532-0.406-0.806   c-0.145-0.32-0.27-0.65-0.401-0.977c-0.11-0.273-0.231-0.543-0.332-0.822c-0.123-0.344-0.224-0.694-0.33-1.045   c-0.084-0.273-0.18-0.543-0.253-0.819c-0.101-0.373-0.173-0.755-0.253-1.136c-0.058-0.262-0.126-0.521-0.174-0.787   c-0.075-0.426-0.12-0.856-0.172-1.288c-0.026-0.229-0.068-0.455-0.09-0.687c-0.028-0.334-0.029-0.676-0.045-1.014H64.145z    M63.008,35.676c-0.178,0.269-0.341,0.546-0.508,0.821s-0.336,0.549-0.492,0.83c-0.181,0.326-0.345,0.66-0.512,0.994   c-0.144,0.284-0.288,0.566-0.42,0.857c-0.157,0.347-0.294,0.702-0.436,1.056c-0.116,0.29-0.239,0.578-0.344,0.873   c-0.131,0.371-0.242,0.75-0.355,1.128c-0.088,0.291-0.186,0.578-0.264,0.872c-0.104,0.403-0.185,0.814-0.271,1.223   c-0.06,0.28-0.13,0.556-0.18,0.838c-0.081,0.462-0.131,0.931-0.186,1.4c-0.029,0.238-0.071,0.473-0.092,0.713   c-0.032,0.383-0.035,0.771-0.052,1.158h-9.896v-9.898c0.387-0.016,0.774-0.017,1.158-0.051c0.238-0.021,0.474-0.063,0.711-0.09   c0.469-0.055,0.938-0.107,1.401-0.188c0.28-0.048,0.557-0.119,0.834-0.178c0.412-0.085,0.824-0.167,1.229-0.273   c0.291-0.076,0.575-0.173,0.863-0.26c0.381-0.115,0.763-0.226,1.138-0.359c0.292-0.105,0.576-0.225,0.864-0.339   c0.355-0.142,0.714-0.281,1.063-0.439c0.288-0.13,0.568-0.274,0.85-0.416c0.337-0.167,0.674-0.333,1.003-0.516   c0.278-0.154,0.549-0.322,0.82-0.487c0.277-0.169,0.557-0.334,0.827-0.512c0.354,0.061,0.722,0.108,1.071,0.173   C62.899,34.955,62.946,35.322,63.008,35.676z M49.001,36.589v-3.295c0.67,0.008,1.338,0.023,2.001,0.046   c0.634,0.022,1.263,0.053,1.889,0.089c0.67,0.039,1.336,0.082,1.995,0.136c0.391,0.032,0.781,0.061,1.167,0.098   c0.896,0.086,1.777,0.189,2.651,0.303c-0.107,0.056-0.214,0.111-0.321,0.165c-0.271,0.137-0.535,0.282-0.81,0.408   c-0.319,0.146-0.648,0.27-0.976,0.402c-0.273,0.11-0.544,0.231-0.823,0.333c-0.342,0.122-0.693,0.222-1.043,0.328   c-0.272,0.085-0.543,0.181-0.82,0.255c-0.372,0.099-0.752,0.171-1.13,0.252c-0.267,0.057-0.525,0.126-0.795,0.174   c-0.423,0.074-0.854,0.12-1.285,0.171c-0.23,0.027-0.455,0.069-0.688,0.09C49.68,36.573,49.338,36.574,49.001,36.589z    M49.001,31.34V11.501c0.005,0,0.01,0,0.014,0.001c0.272,0.042,0.541,0.113,0.811,0.188c0.093,0.026,0.187,0.043,0.279,0.073   c0.246,0.08,0.489,0.183,0.732,0.289c0.113,0.049,0.227,0.093,0.339,0.148c0.227,0.111,0.452,0.242,0.677,0.377   c0.125,0.075,0.251,0.149,0.375,0.231c0.212,0.141,0.422,0.296,0.63,0.456c0.134,0.103,0.268,0.208,0.4,0.319   c0.196,0.165,0.391,0.34,0.584,0.522c0.142,0.134,0.283,0.273,0.423,0.417c0.18,0.184,0.359,0.374,0.536,0.574   c0.151,0.169,0.299,0.347,0.447,0.527c0.163,0.197,0.325,0.397,0.483,0.607c0.162,0.212,0.319,0.435,0.478,0.66   c0.142,0.201,0.284,0.401,0.423,0.613c0.177,0.269,0.349,0.553,0.521,0.838c0.114,0.189,0.231,0.372,0.344,0.568   c0.208,0.364,0.411,0.746,0.611,1.132c0.071,0.136,0.145,0.264,0.214,0.403c0.831,1.652,1.595,3.491,2.275,5.49   c0.013,0.038,0.025,0.078,0.038,0.117c0.21,0.623,0.413,1.261,0.607,1.913c0.029,0.101,0.058,0.206,0.088,0.309   c0.173,0.595,0.341,1.199,0.5,1.817c0.036,0.139,0.068,0.281,0.104,0.421c0.099,0.39,0.189,0.789,0.281,1.187   c-0.175,0.137-0.353,0.266-0.53,0.398c-0.104,0.077-0.209,0.154-0.313,0.229c-0.473-0.073-0.962-0.131-1.443-0.196   c-0.421-0.058-0.838-0.12-1.265-0.172c-0.544-0.065-1.102-0.116-1.655-0.171c-2.502-0.253-5.094-0.403-7.766-0.439   C49.16,31.347,49.082,31.341,49.001,31.34L49.001,31.34z M47.002,33.295v3.294c-0.338-0.015-0.68-0.016-1.016-0.045   c-0.229-0.021-0.451-0.062-0.678-0.09c-0.434-0.05-0.869-0.096-1.295-0.171c-0.263-0.047-0.52-0.115-0.781-0.172   c-0.383-0.081-0.768-0.154-1.143-0.254c-0.273-0.073-0.539-0.168-0.809-0.251c-0.354-0.107-0.711-0.209-1.057-0.333   c-0.275-0.099-0.541-0.219-0.811-0.328c-0.331-0.133-0.665-0.259-0.988-0.407c-0.271-0.123-0.531-0.267-0.797-0.401   c-0.111-0.056-0.222-0.113-0.331-0.171c0.871-0.113,1.751-0.216,2.646-0.302c0.39-0.036,0.783-0.067,1.176-0.098   c0.656-0.054,1.32-0.097,1.988-0.136c0.627-0.036,1.256-0.068,1.893-0.089c0.662-0.024,1.33-0.038,2-0.046H47.002z M34.038,30.61   c0.048-0.188,0.093-0.379,0.142-0.565c0.145-0.562,0.299-1.113,0.456-1.656c0.044-0.153,0.087-0.31,0.132-0.461   c0.176-0.589,0.359-1.163,0.549-1.727c0.033-0.098,0.063-0.199,0.096-0.296c0.677-1.983,1.434-3.808,2.259-5.449   c0.086-0.17,0.177-0.328,0.263-0.494c0.186-0.354,0.373-0.707,0.563-1.043c0.122-0.212,0.248-0.41,0.372-0.615   c0.163-0.269,0.326-0.538,0.492-0.794c0.145-0.221,0.293-0.429,0.441-0.639c0.151-0.217,0.305-0.431,0.458-0.636   c0.164-0.216,0.33-0.42,0.497-0.623c0.145-0.176,0.29-0.349,0.436-0.514c0.181-0.202,0.361-0.395,0.545-0.582   c0.138-0.141,0.275-0.279,0.416-0.411c0.195-0.183,0.392-0.36,0.59-0.526c0.131-0.109,0.263-0.213,0.396-0.315   c0.209-0.162,0.42-0.317,0.633-0.458c0.123-0.082,0.248-0.154,0.373-0.229c0.225-0.135,0.451-0.266,0.679-0.378   c0.112-0.055,0.226-0.099,0.339-0.148c0.243-0.106,0.486-0.21,0.732-0.289c0.092-0.03,0.187-0.047,0.279-0.073   c0.27-0.075,0.538-0.146,0.811-0.188C46.99,11.5,46.994,11.5,46.998,11.5v19.839c-0.082,0.001-0.16,0.006-0.242,0.007   c-2.672,0.035-5.266,0.186-7.768,0.439c-0.553,0.055-1.108,0.106-1.651,0.171c-0.43,0.052-0.851,0.114-1.276,0.173   c-0.478,0.065-0.963,0.122-1.434,0.195c-0.104-0.074-0.206-0.15-0.309-0.226c-0.18-0.133-0.36-0.264-0.537-0.402   C33.865,31.333,33.949,30.967,34.038,30.61z M33.167,34.605c0.349-0.065,0.717-0.112,1.071-0.173c0.27,0.18,0.552,0.344,0.83,0.514   c0.27,0.164,0.539,0.331,0.816,0.485c0.329,0.183,0.667,0.35,1.006,0.517c0.281,0.141,0.56,0.285,0.846,0.415   c0.351,0.158,0.709,0.296,1.068,0.439c0.286,0.115,0.569,0.235,0.861,0.339c0.375,0.132,0.757,0.245,1.139,0.36   c0.288,0.086,0.57,0.183,0.861,0.259c0.406,0.106,0.816,0.187,1.229,0.274c0.278,0.058,0.554,0.129,0.834,0.177   c0.463,0.082,0.933,0.133,1.402,0.188c0.237,0.027,0.473,0.069,0.711,0.09c0.383,0.033,0.771,0.035,1.158,0.051v9.899h-9.896   c-0.018-0.387-0.019-0.775-0.053-1.158c-0.021-0.239-0.063-0.474-0.09-0.711c-0.055-0.469-0.107-0.939-0.188-1.402   c-0.049-0.28-0.119-0.556-0.178-0.834c-0.086-0.412-0.168-0.824-0.273-1.228c-0.076-0.291-0.174-0.575-0.26-0.863   c-0.115-0.381-0.227-0.763-0.359-1.138c-0.105-0.292-0.225-0.576-0.34-0.864c-0.141-0.356-0.28-0.714-0.438-1.064   c-0.13-0.288-0.274-0.568-0.416-0.85c-0.167-0.336-0.333-0.673-0.516-1.002c-0.154-0.279-0.322-0.549-0.487-0.821   c-0.169-0.278-0.333-0.557-0.512-0.828C33.055,35.322,33.102,34.955,33.167,34.605z M31.902,46.321   c0.022-0.589,0.054-1.172,0.086-1.754c0.039-0.679,0.084-1.355,0.139-2.023c0.032-0.387,0.061-0.775,0.098-1.158   c0.086-0.896,0.189-1.778,0.303-2.651c0.056,0.107,0.111,0.214,0.164,0.321c0.138,0.27,0.283,0.535,0.408,0.81   c0.146,0.319,0.271,0.648,0.402,0.975c0.109,0.274,0.23,0.544,0.333,0.823c0.122,0.342,0.222,0.694,0.328,1.043   c0.085,0.273,0.181,0.543,0.255,0.821c0.1,0.372,0.171,0.752,0.252,1.13c0.057,0.266,0.126,0.525,0.174,0.794   c0.074,0.423,0.12,0.855,0.172,1.286c0.026,0.23,0.068,0.455,0.09,0.687c0.028,0.334,0.028,0.676,0.045,1.013h-3.295   C31.863,47.729,31.878,47.022,31.902,46.321z M35.15,50.439c-0.016,0.338-0.016,0.68-0.045,1.014   c-0.021,0.229-0.062,0.451-0.09,0.678c-0.05,0.434-0.096,0.869-0.17,1.295c-0.048,0.263-0.115,0.52-0.173,0.781   c-0.081,0.383-0.153,0.768-0.254,1.143c-0.073,0.273-0.168,0.539-0.251,0.809c-0.107,0.354-0.209,0.711-0.333,1.057   c-0.099,0.275-0.219,0.541-0.328,0.811c-0.133,0.331-0.259,0.665-0.407,0.988c-0.123,0.271-0.267,0.531-0.4,0.797   c-0.057,0.111-0.113,0.222-0.172,0.331c-0.113-0.872-0.215-1.752-0.301-2.646c-0.037-0.392-0.068-0.787-0.1-1.182   c-0.054-0.652-0.098-1.314-0.136-1.979c-0.035-0.619-0.067-1.24-0.089-1.869c-0.024-0.672-0.038-1.348-0.047-2.027H35.15z    M10.247,51.25c-0.074-0.263-0.144-0.526-0.185-0.793c0-0.006,0-0.012-0.002-0.015H29.9c0.002,0.082,0.007,0.162,0.008,0.244   c0.037,2.666,0.186,5.252,0.438,7.748c0.057,0.562,0.109,1.124,0.176,1.676c0.051,0.422,0.111,0.833,0.17,1.25   c0.064,0.483,0.123,0.978,0.197,1.453c-0.074,0.104-0.15,0.206-0.227,0.31c-0.133,0.18-0.264,0.359-0.402,0.537   c-0.363-0.084-0.728-0.169-1.084-0.258c-0.189-0.047-0.381-0.093-0.568-0.143c-0.559-0.144-1.104-0.295-1.643-0.451   c-0.158-0.046-0.322-0.09-0.479-0.137c-0.578-0.172-1.141-0.354-1.697-0.539c-0.107-0.035-0.219-0.069-0.325-0.105   c-1.333-0.454-2.595-0.945-3.778-1.469c-0.021-0.008-0.041-0.02-0.062-0.028c-0.55-0.245-1.082-0.497-1.597-0.756   c-0.189-0.095-0.364-0.194-0.549-0.291c-0.336-0.177-0.67-0.353-0.988-0.535c-0.225-0.128-0.434-0.261-0.65-0.393   c-0.257-0.156-0.515-0.312-0.759-0.472c-0.229-0.15-0.446-0.306-0.665-0.459c-0.207-0.146-0.414-0.291-0.611-0.44   c-0.222-0.168-0.433-0.339-0.641-0.511c-0.169-0.139-0.337-0.279-0.497-0.422c-0.207-0.184-0.405-0.369-0.595-0.556   c-0.137-0.134-0.271-0.269-0.398-0.405c-0.188-0.197-0.365-0.396-0.535-0.598c-0.107-0.129-0.209-0.259-0.31-0.389   c-0.163-0.213-0.319-0.424-0.462-0.639c-0.082-0.123-0.154-0.246-0.229-0.371c-0.136-0.225-0.267-0.449-0.379-0.679   c-0.055-0.114-0.099-0.229-0.15-0.344c-0.104-0.242-0.207-0.483-0.285-0.728C10.293,51.447,10.273,51.35,10.247,51.25z    M17.314,71.918c-0.092-0.125-0.186-0.252-0.275-0.379c-0.146-0.203-0.29-0.404-0.43-0.609c-0.15-0.215-0.293-0.434-0.438-0.652   c-0.14-0.211-0.277-0.422-0.411-0.634c-0.136-0.218-0.268-0.437-0.399-0.655c-0.133-0.218-0.264-0.438-0.391-0.656   c-0.125-0.22-0.246-0.44-0.369-0.662c-0.123-0.225-0.246-0.446-0.363-0.674c-0.116-0.223-0.229-0.447-0.34-0.671   c-0.113-0.229-0.229-0.458-0.338-0.688c-0.106-0.226-0.205-0.451-0.308-0.679c-0.106-0.234-0.212-0.47-0.313-0.705   c-0.096-0.229-0.187-0.459-0.278-0.688c-0.095-0.237-0.19-0.476-0.282-0.714c-0.088-0.232-0.17-0.469-0.254-0.704   c-0.084-0.24-0.171-0.479-0.251-0.722c-0.08-0.239-0.151-0.479-0.226-0.719c-0.066-0.211-0.133-0.422-0.194-0.635   c-0.021-0.07-0.041-0.141-0.062-0.211c-0.057-0.205-0.11-0.411-0.166-0.617c-0.051-0.195-0.104-0.392-0.153-0.588   c-0.036-0.142-0.068-0.283-0.101-0.426c-0.037-0.158-0.072-0.314-0.106-0.471c-0.046-0.205-0.093-0.409-0.136-0.614   c-0.041-0.201-0.078-0.403-0.114-0.604c-0.019-0.096-0.036-0.189-0.054-0.285c-0.025-0.145-0.053-0.291-0.078-0.439   c0.057,0.07,0.123,0.139,0.182,0.208c0.163,0.194,0.327,0.39,0.504,0.581c0.107,0.116,0.227,0.23,0.339,0.344   c0.146,0.149,0.29,0.299,0.445,0.446c0.122,0.114,0.252,0.229,0.379,0.342c0.16,0.146,0.319,0.288,0.487,0.431   c0.13,0.108,0.266,0.217,0.4,0.323c0.18,0.146,0.363,0.288,0.551,0.431c0.135,0.101,0.271,0.199,0.408,0.297   c0.206,0.148,0.416,0.295,0.631,0.439c0.131,0.09,0.265,0.178,0.4,0.266c0.238,0.154,0.482,0.308,0.73,0.457   c0.123,0.076,0.244,0.149,0.369,0.222c0.285,0.169,0.58,0.334,0.881,0.497c0.097,0.053,0.188,0.105,0.287,0.156   c0.369,0.197,0.748,0.391,1.135,0.58c0.035,0.016,0.068,0.033,0.101,0.049c2.894,1.402,6.279,2.589,10.052,3.508   c-0.205,0.217-0.427,0.422-0.642,0.63c-0.24,0.231-0.474,0.466-0.722,0.688c-0.235,0.207-0.481,0.401-0.723,0.6   c-0.257,0.209-0.509,0.422-0.773,0.621c-0.252,0.189-0.516,0.363-0.776,0.543c-0.272,0.188-0.542,0.378-0.821,0.554   c-0.27,0.168-0.549,0.322-0.824,0.479c-0.289,0.164-0.576,0.332-0.871,0.482c-0.284,0.145-0.577,0.276-0.868,0.411   c-0.304,0.14-0.606,0.282-0.918,0.41c-0.298,0.121-0.601,0.228-0.905,0.337c-0.318,0.114-0.637,0.23-0.962,0.332   c-0.31,0.098-0.626,0.177-0.94,0.261C17.786,71.805,17.551,71.862,17.314,71.918z M24.962,75.563   c-0.128,0.301-0.255,0.601-0.372,0.907c-0.135,0.355-0.256,0.72-0.375,1.085c-0.102,0.311-0.206,0.622-0.296,0.938   c-0.03,0.107-0.071,0.209-0.101,0.316c-0.809-0.665-1.582-1.363-2.325-2.083c-0.127-0.123-0.257-0.244-0.382-0.369   c-0.153-0.155-0.303-0.313-0.454-0.469c-0.701-0.728-1.382-1.479-2.03-2.269c0.107-0.029,0.211-0.07,0.318-0.101   c0.316-0.089,0.625-0.192,0.935-0.294c0.366-0.12,0.731-0.241,1.091-0.377c0.305-0.116,0.603-0.242,0.902-0.37   c0.348-0.149,0.695-0.299,1.036-0.463c0.294-0.14,0.58-0.29,0.866-0.44c0.332-0.177,0.658-0.356,0.979-0.546   c0.28-0.163,0.554-0.335,0.825-0.51c0.313-0.201,0.621-0.406,0.923-0.621c0.265-0.187,0.522-0.377,0.778-0.573   c0.294-0.225,0.58-0.455,0.863-0.693c0.248-0.207,0.49-0.416,0.729-0.633c0.273-0.248,0.538-0.502,0.8-0.763   c0.228-0.226,0.454-0.454,0.673-0.688c0.206-0.219,0.406-0.439,0.603-0.666c0.167,0.035,0.337,0.07,0.506,0.103   c0.034,0.168,0.067,0.338,0.103,0.506c-0.227,0.197-0.447,0.397-0.666,0.601c-0.234,0.221-0.463,0.447-0.689,0.676   c-0.258,0.261-0.512,0.525-0.76,0.798c-0.217,0.239-0.428,0.481-0.635,0.729c-0.236,0.281-0.467,0.567-0.691,0.859   c-0.196,0.258-0.389,0.516-0.575,0.782c-0.214,0.301-0.419,0.606-0.619,0.92c-0.175,0.272-0.347,0.547-0.513,0.828   c-0.188,0.321-0.367,0.647-0.541,0.978c-0.152,0.286-0.303,0.574-0.444,0.869C25.26,74.871,25.109,75.215,24.962,75.563z    M39.467,86.528c-0.005-0.001-0.01-0.002-0.015-0.003c-5-1.145-9.716-3.296-13.935-6.393c0.057-0.241,0.117-0.482,0.181-0.721   c0.081-0.313,0.161-0.625,0.258-0.93c0.103-0.33,0.219-0.652,0.336-0.973c0.108-0.301,0.213-0.603,0.333-0.896   c0.129-0.317,0.271-0.622,0.415-0.93c0.133-0.287,0.261-0.576,0.405-0.856c0.152-0.3,0.322-0.589,0.488-0.881   c0.157-0.273,0.31-0.549,0.476-0.814c0.177-0.283,0.368-0.555,0.557-0.83c0.179-0.258,0.353-0.521,0.54-0.771   c0.2-0.266,0.413-0.519,0.624-0.776c0.198-0.241,0.392-0.487,0.599-0.721c0.221-0.248,0.457-0.484,0.688-0.722   c0.209-0.215,0.413-0.435,0.63-0.644c0.919,3.775,2.108,7.162,3.509,10.055c0.016,0.031,0.03,0.061,0.045,0.092   c0.19,0.391,0.385,0.773,0.584,1.145c0.049,0.095,0.102,0.186,0.152,0.279c0.165,0.305,0.332,0.602,0.503,0.893   c0.07,0.121,0.142,0.238,0.212,0.354c0.155,0.254,0.311,0.504,0.469,0.748c0.084,0.13,0.17,0.259,0.256,0.386   c0.147,0.221,0.299,0.437,0.451,0.647c0.094,0.132,0.188,0.263,0.285,0.392c0.146,0.195,0.297,0.385,0.446,0.573   c0.103,0.127,0.203,0.255,0.308,0.378c0.149,0.18,0.303,0.35,0.457,0.52c0.104,0.117,0.207,0.236,0.313,0.349   c0.162,0.172,0.327,0.332,0.493,0.493c0.1,0.097,0.197,0.199,0.297,0.292c0.25,0.231,0.503,0.45,0.759,0.657   c0.013,0.012,0.024,0.022,0.038,0.033C40.898,86.834,40.18,86.691,39.467,86.528z M47,87.379c-0.004,0-0.007,0-0.01,0   c-0.278-0.043-0.553-0.115-0.827-0.192c-0.087-0.024-0.177-0.041-0.263-0.069c-0.252-0.08-0.498-0.185-0.746-0.293   c-0.108-0.048-0.219-0.09-0.325-0.143c-0.231-0.114-0.46-0.247-0.688-0.385c-0.121-0.073-0.242-0.145-0.363-0.224   c-0.215-0.143-0.43-0.301-0.641-0.464c-0.131-0.102-0.26-0.202-0.388-0.309c-0.202-0.17-0.401-0.348-0.599-0.534   c-0.135-0.13-0.271-0.263-0.403-0.397c-0.187-0.191-0.372-0.387-0.556-0.593c-0.143-0.161-0.282-0.33-0.424-0.501   c-0.17-0.207-0.341-0.416-0.507-0.636c-0.151-0.199-0.299-0.409-0.446-0.619c-0.151-0.216-0.305-0.429-0.453-0.657   c-0.162-0.246-0.319-0.507-0.478-0.767c-0.13-0.214-0.261-0.423-0.388-0.644c-0.184-0.32-0.359-0.656-0.538-0.994   c-0.097-0.183-0.194-0.356-0.289-0.543c-0.253-0.504-0.499-1.026-0.739-1.563c-0.015-0.035-0.031-0.065-0.046-0.101   c-0.265-0.596-0.521-1.213-0.768-1.849c-0.005-0.013-0.011-0.026-0.015-0.041c-0.236-0.606-0.463-1.233-0.683-1.874   c-0.045-0.131-0.086-0.268-0.13-0.4c-0.178-0.529-0.35-1.065-0.514-1.615c-0.055-0.186-0.106-0.376-0.16-0.563   c-0.147-0.509-0.289-1.021-0.426-1.546c-0.059-0.223-0.111-0.448-0.168-0.675c-0.082-0.332-0.16-0.67-0.238-1.009   c0.177-0.138,0.355-0.269,0.537-0.402c0.103-0.077,0.205-0.153,0.31-0.228c0.453,0.07,0.923,0.125,1.384,0.188   c0.443,0.062,0.883,0.127,1.332,0.183c0.543,0.065,1.096,0.115,1.646,0.17c2.5,0.252,5.09,0.404,7.759,0.439   c0.084,0.001,0.165,0.006,0.249,0.008V87.379z M53.854,84.762c-0.2,0.188-0.401,0.369-0.605,0.541   c-0.126,0.105-0.252,0.203-0.379,0.302c-0.215,0.166-0.431,0.325-0.648,0.47c-0.118,0.078-0.237,0.148-0.355,0.219   c-0.23,0.14-0.462,0.273-0.694,0.388c-0.107,0.053-0.215,0.094-0.322,0.141c-0.249,0.109-0.498,0.216-0.749,0.296   c-0.087,0.027-0.175,0.045-0.261,0.068c-0.275,0.077-0.551,0.148-0.829,0.191c-0.003,0-0.006,0-0.009,0.002V67.649l-1.159-2.315   c-0.339-0.414-0.609-0.882-0.843-1.369v1.619c-0.675-0.008-1.347-0.022-2.013-0.045c-0.623-0.022-1.24-0.054-1.855-0.088   c-0.686-0.039-1.365-0.084-2.04-0.14c-0.379-0.031-0.76-0.06-1.135-0.095c-0.897-0.088-1.783-0.191-2.659-0.305   c0.107-0.057,0.215-0.111,0.323-0.166c0.269-0.136,0.532-0.281,0.806-0.406c0.32-0.146,0.65-0.271,0.977-0.402   c0.273-0.109,0.543-0.23,0.822-0.332c0.344-0.123,0.694-0.223,1.045-0.33c0.273-0.084,0.543-0.18,0.819-0.253   c0.373-0.101,0.755-0.173,1.136-0.253c0.262-0.057,0.521-0.126,0.787-0.174c0.426-0.075,0.856-0.12,1.288-0.172   c0.229-0.026,0.455-0.068,0.687-0.09c0.15-0.013,0.303-0.015,0.455-0.021c-0.073-0.396-0.115-0.803-0.115-1.22   c0-0.247,0.016-0.49,0.042-0.729c-0.177,0.007-0.354,0.009-0.528,0.023c-0.238,0.022-0.471,0.063-0.707,0.091   c-0.47,0.055-0.943,0.107-1.406,0.188c-0.279,0.049-0.553,0.119-0.83,0.178c-0.412,0.086-0.826,0.168-1.231,0.273   c-0.291,0.077-0.574,0.174-0.86,0.26c-0.382,0.115-0.765,0.227-1.14,0.359c-0.291,0.104-0.574,0.225-0.86,0.34   c-0.359,0.141-0.717,0.281-1.068,0.438c-0.286,0.13-0.565,0.272-0.844,0.414c-0.341,0.169-0.679,0.336-1.01,0.52   c-0.275,0.153-0.543,0.319-0.814,0.482c-0.279,0.17-0.562,0.335-0.834,0.515c-0.353-0.061-0.719-0.109-1.068-0.173   c-0.066-0.349-0.111-0.717-0.173-1.071c0.179-0.27,0.344-0.552,0.514-0.83c0.164-0.27,0.331-0.539,0.485-0.816   c0.183-0.329,0.35-0.667,0.517-1.006c0.142-0.281,0.285-0.56,0.415-0.846c0.158-0.351,0.297-0.709,0.439-1.068   c0.115-0.286,0.234-0.569,0.339-0.861c0.132-0.375,0.245-0.757,0.36-1.139c0.086-0.288,0.183-0.57,0.258-0.861   c0.106-0.406,0.188-0.816,0.275-1.229c0.057-0.278,0.129-0.554,0.176-0.834c0.082-0.463,0.133-0.933,0.188-1.402   c0.026-0.237,0.069-0.473,0.09-0.711c0.034-0.383,0.035-0.771,0.052-1.158h9.896v7.747c0.467-0.964,1.155-1.799,2.002-2.439v-5.305   h9.896c0.017,0.388,0.02,0.774,0.052,1.158c0.021,0.237,0.063,0.471,0.091,0.707c0.055,0.47,0.106,0.942,0.188,1.405   c0.049,0.281,0.118,0.554,0.177,0.83c0.087,0.412,0.168,0.826,0.274,1.232c0.077,0.291,0.173,0.574,0.26,0.861   c0.115,0.381,0.227,0.764,0.359,1.139c0.104,0.291,0.225,0.574,0.339,0.861c0.142,0.357,0.282,0.716,0.439,1.068   c0.13,0.285,0.272,0.564,0.414,0.844c0.169,0.34,0.336,0.678,0.52,1.009c0.153,0.276,0.319,0.543,0.482,0.813   c0.17,0.279,0.335,0.563,0.515,0.834c-0.062,0.354-0.108,0.721-0.173,1.069c-0.35,0.065-0.716,0.112-1.07,0.173   c-0.269-0.178-0.546-0.341-0.821-0.508c-0.274-0.167-0.549-0.336-0.83-0.492c-0.227-0.126-0.459-0.24-0.691-0.356   c-0.198,0.631-0.488,1.216-0.853,1.751c0.045,0.023,0.09,0.046,0.135,0.07c-0.065,0.009-0.133,0.015-0.198,0.022   c-0.094,0.133-0.173,0.275-0.275,0.4l-0.86,1.719c0.431-0.042,0.863-0.083,1.285-0.134c0.451-0.055,0.891-0.119,1.334-0.182   c0.462-0.063,0.931-0.117,1.384-0.188c0.104,0.074,0.205,0.15,0.309,0.226c0.18,0.132,0.361,0.265,0.538,0.403   c-0.084,0.363-0.168,0.728-0.257,1.084c-0.047,0.189-0.093,0.381-0.143,0.568c-0.144,0.559-0.296,1.104-0.451,1.643   c-0.047,0.158-0.09,0.322-0.137,0.479c-0.173,0.578-0.353,1.141-0.539,1.697c-0.036,0.107-0.068,0.219-0.105,0.325   c-0.454,1.332-0.944,2.595-1.468,3.776c-0.011,0.024-0.022,0.047-0.032,0.069c-0.244,0.548-0.495,1.077-0.752,1.591   c-0.097,0.19-0.196,0.366-0.294,0.553c-0.177,0.332-0.352,0.666-0.532,0.982c-0.13,0.225-0.264,0.438-0.396,0.655   c-0.154,0.255-0.309,0.511-0.468,0.753c-0.15,0.232-0.307,0.45-0.462,0.67c-0.145,0.206-0.29,0.411-0.437,0.605   c-0.17,0.224-0.344,0.437-0.517,0.646c-0.138,0.167-0.275,0.332-0.416,0.49c-0.185,0.209-0.373,0.408-0.562,0.602   C54.12,84.504,53.986,84.635,53.854,84.762z M56.551,86.524c-0.006,0.001-0.012,0.003-0.018,0.004   c-0.714,0.163-1.432,0.306-2.154,0.425c0.013-0.01,0.023-0.021,0.036-0.031c0.257-0.209,0.511-0.43,0.762-0.662   c0.095-0.088,0.188-0.184,0.283-0.276c0.17-0.166,0.341-0.332,0.508-0.509c0.102-0.107,0.201-0.223,0.302-0.333   c0.158-0.177,0.316-0.351,0.472-0.536c0.099-0.118,0.195-0.241,0.294-0.363c0.154-0.193,0.308-0.388,0.46-0.59   c0.092-0.123,0.183-0.249,0.273-0.375c0.157-0.218,0.312-0.438,0.464-0.666c0.082-0.121,0.163-0.244,0.244-0.367   c0.162-0.25,0.322-0.509,0.481-0.771c0.066-0.11,0.134-0.22,0.2-0.332c0.177-0.302,0.35-0.61,0.521-0.925   c0.045-0.082,0.09-0.162,0.135-0.246c0.206-0.387,0.408-0.784,0.606-1.191c0.007-0.015,0.015-0.029,0.021-0.045   c1.404-2.896,2.594-6.286,3.515-10.063c0.215,0.205,0.419,0.425,0.627,0.64c0.23,0.239,0.467,0.476,0.688,0.726   c0.206,0.231,0.398,0.475,0.595,0.715c0.212,0.258,0.428,0.513,0.629,0.783c0.185,0.245,0.355,0.506,0.531,0.76   c0.191,0.278,0.386,0.554,0.564,0.84c0.164,0.262,0.313,0.533,0.468,0.804c0.169,0.296,0.34,0.589,0.496,0.894   c0.141,0.276,0.269,0.562,0.399,0.844c0.144,0.312,0.29,0.623,0.421,0.943c0.118,0.287,0.221,0.584,0.327,0.877   c0.117,0.328,0.238,0.656,0.343,0.992c0.093,0.299,0.171,0.604,0.251,0.908c0.065,0.244,0.127,0.488,0.185,0.736   C66.265,83.229,61.551,85.381,56.551,86.524z M75.313,75.92c-0.138,0.142-0.271,0.283-0.411,0.422   c-0.138,0.142-0.281,0.274-0.423,0.412c-0.735,0.711-1.5,1.4-2.299,2.058c-0.029-0.104-0.068-0.205-0.098-0.31   c-0.092-0.326-0.199-0.645-0.304-0.963c-0.116-0.357-0.234-0.713-0.365-1.062c-0.119-0.315-0.25-0.622-0.382-0.931   c-0.145-0.338-0.291-0.676-0.45-1.006c-0.145-0.303-0.299-0.598-0.454-0.892c-0.172-0.323-0.347-0.644-0.532-0.957   c-0.168-0.287-0.343-0.567-0.521-0.846c-0.196-0.306-0.397-0.606-0.607-0.902c-0.191-0.271-0.387-0.535-0.588-0.797   c-0.22-0.287-0.446-0.569-0.679-0.845c-0.21-0.254-0.426-0.502-0.647-0.745c-0.242-0.267-0.491-0.526-0.745-0.783   c-0.229-0.233-0.464-0.464-0.704-0.688c-0.216-0.201-0.436-0.399-0.659-0.595c0.036-0.167,0.069-0.337,0.103-0.506   c0.168-0.034,0.338-0.067,0.506-0.103c0.197,0.227,0.397,0.447,0.6,0.666c0.222,0.234,0.447,0.463,0.677,0.689   c0.261,0.258,0.525,0.512,0.798,0.76c0.239,0.217,0.481,0.428,0.729,0.635c0.282,0.236,0.568,0.467,0.86,0.691   c0.257,0.196,0.516,0.389,0.782,0.575c0.301,0.214,0.606,0.419,0.92,0.619c0.271,0.175,0.547,0.347,0.828,0.513   c0.32,0.188,0.646,0.367,0.977,0.541c0.287,0.152,0.575,0.303,0.87,0.444c0.339,0.163,0.684,0.313,1.032,0.461   c0.301,0.128,0.6,0.255,0.907,0.372c0.355,0.135,0.72,0.256,1.085,0.375c0.311,0.102,0.621,0.206,0.938,0.296   c0.107,0.03,0.209,0.071,0.316,0.101C76.714,74.42,76.024,75.185,75.313,75.92z M85.092,57.953   c-0.005,0.022-0.011,0.045-0.016,0.068c-1.146,4.986-3.294,9.691-6.384,13.898c-0.241-0.056-0.481-0.116-0.719-0.178   c-0.313-0.082-0.625-0.162-0.93-0.258c-0.33-0.102-0.652-0.219-0.974-0.336c-0.301-0.107-0.602-0.213-0.895-0.333   c-0.317-0.129-0.622-0.272-0.93-0.415c-0.287-0.133-0.576-0.261-0.857-0.406c-0.299-0.152-0.588-0.322-0.88-0.488   c-0.273-0.156-0.549-0.309-0.815-0.475c-0.282-0.177-0.555-0.369-0.83-0.557c-0.258-0.178-0.52-0.352-0.77-0.54   c-0.266-0.2-0.519-0.413-0.776-0.624c-0.241-0.198-0.487-0.391-0.721-0.598c-0.248-0.222-0.484-0.457-0.722-0.688   c-0.215-0.209-0.436-0.413-0.644-0.63c4.336-1.055,8.16-2.466,11.312-4.148c0.072-0.037,0.141-0.076,0.212-0.115   c0.327-0.178,0.647-0.357,0.961-0.541c0.101-0.061,0.2-0.121,0.299-0.18c0.274-0.166,0.543-0.335,0.805-0.505   c0.114-0.075,0.227-0.149,0.338-0.223c0.238-0.161,0.472-0.323,0.699-0.488c0.116-0.083,0.232-0.167,0.345-0.251   c0.215-0.161,0.423-0.324,0.627-0.488c0.108-0.089,0.221-0.177,0.326-0.266c0.202-0.17,0.396-0.342,0.586-0.516   c0.095-0.086,0.192-0.17,0.283-0.258c0.206-0.194,0.401-0.393,0.593-0.592c0.063-0.066,0.132-0.131,0.193-0.197   c0.248-0.268,0.485-0.537,0.705-0.811C85.394,56.535,85.253,57.246,85.092,57.953z M85.938,50.449   c-0.043,0.278-0.114,0.553-0.191,0.826c-0.024,0.088-0.041,0.178-0.068,0.262c-0.08,0.25-0.185,0.498-0.293,0.744   c-0.048,0.109-0.091,0.221-0.144,0.328c-0.113,0.23-0.245,0.458-0.383,0.686c-0.073,0.123-0.145,0.246-0.226,0.367   c-0.142,0.215-0.298,0.426-0.46,0.637c-0.102,0.132-0.204,0.264-0.314,0.395c-0.166,0.198-0.342,0.395-0.525,0.589   c-0.133,0.142-0.271,0.279-0.412,0.418c-0.187,0.183-0.378,0.362-0.579,0.541c-0.167,0.148-0.343,0.296-0.521,0.441   c-0.199,0.164-0.401,0.327-0.613,0.489c-0.21,0.158-0.431,0.314-0.651,0.47c-0.206,0.144-0.409,0.288-0.624,0.43   c-0.264,0.173-0.542,0.343-0.82,0.511c-0.194,0.117-0.385,0.237-0.588,0.354c-0.352,0.202-0.721,0.398-1.094,0.592   c-0.148,0.078-0.29,0.158-0.442,0.234c-1.645,0.828-3.477,1.589-5.467,2.267c-0.075,0.025-0.153,0.05-0.229,0.074   c-0.584,0.196-1.182,0.386-1.791,0.569c-0.141,0.041-0.285,0.08-0.426,0.121c-0.555,0.16-1.114,0.316-1.688,0.465   c-0.182,0.047-0.368,0.092-0.552,0.138c-0.361,0.09-0.729,0.174-1.095,0.259c-0.138-0.177-0.271-0.355-0.402-0.535   c-0.077-0.104-0.153-0.207-0.228-0.311c0.07-0.447,0.123-0.912,0.187-1.367c0.063-0.452,0.13-0.898,0.186-1.359   c0.063-0.516,0.11-1.045,0.163-1.57c0.258-2.521,0.41-5.135,0.446-7.829c0.001-0.082,0.006-0.161,0.007-0.243h19.84   C85.938,50.443,85.938,50.446,85.938,50.449z"/></g>
    </svg>